<svg xmlns="http://www.w3.org/2000/svg" xmlns:xlink="http://www.w3.org/1999/xlink" width="375" viewBox="0 0 375 375" height="375" version="1.0"><defs><clipPath id="b"><path d="M 81.300781 138.75 L 214.800781 138.75 L 214.800781 172 L 81.300781 172 Z M 81.300781 138.75"/></clipPath><clipPath id="c"><path d="M 81.300781 138.75 L 115 138.75 L 115 272.25 L 81.300781 272.25 Z M 81.300781 138.75"/></clipPath><clipPath id="d"><path d="M 81.300781 138.75 L 214.800781 138.75 L 214.800781 173 L 81.300781 173 Z M 81.300781 138.75"/></clipPath><clipPath id="g"><path d="M 0.300781 0.75 L 133.800781 0.75 L 133.800781 34 L 0.300781 34 Z M 0.300781 0.75"/></clipPath><clipPath id="f"><path d="M0 0H134V35H0z"/></clipPath><clipPath id="j"><path d="M 0.359375 0.761719 L 9 0.761719 L 9 9.878906 L 0.359375 9.878906 Z M 0.359375 0.761719"/></clipPath><clipPath id="i"><path d="M0 0H10V10H0z"/></clipPath><clipPath id="k"><path d="M 159.691406 238 L 292.980469 238 L 292.980469 272.039062 L 159.691406 272.039062 Z M 159.691406 238"/></clipPath><clipPath id="l"><path d="M 259 138.75 L 292.980469 138.75 L 292.980469 272.039062 L 259 272.039062 Z M 259 138.75"/></clipPath><clipPath id="m"><path d="M 159.691406 238 L 292.980469 238 L 292.980469 272.039062 L 159.691406 272.039062 Z M 159.691406 238"/></clipPath><clipPath id="p"><path d="M 0.691406 0.558594 L 133.980469 0.558594 L 133.980469 34.039062 L 0.691406 34.039062 Z M 0.691406 0.558594"/></clipPath><clipPath id="o"><path d="M0 0H134V35H0z"/></clipPath><clipPath id="r"><path d="M0 0H11V10H0z"/></clipPath><mask id="e"><g filter="url(#a)"><path fill-opacity=".2" d="M-37.5 -37.5H412.5V412.5H-37.5z"/></g></mask><mask id="h"><g filter="url(#a)"><path fill-opacity=".2" d="M-37.5 -37.5H412.5V412.5H-37.5z"/></g></mask><mask id="n"><g filter="url(#a)"><path fill-opacity=".2" d="M-37.5 -37.5H412.5V412.5H-37.5z"/></g></mask><mask id="q"><g filter="url(#a)"><path fill-opacity=".2" d="M-37.5 -37.5H412.5V412.5H-37.5z"/></g></mask><filter x="0%" y="0%" width="100%" xmlns:xlink="http://www.w3.org/1999/xlink" xlink:type="simple" xlink:actuate="onLoad" height="100%" id="a" xlink:show="other"><feColorMatrix values="0 0 0 0 1 0 0 0 0 1 0 0 0 0 1 0 0 0 1 0" color-interpolation-filters="sRGB"/></filter></defs><g clip-path="url(#b)"><path fill="#DAA520" d="M 214.800781 138.75 L 81.300781 138.75 L 114.367188 171.8125 L 181.738281 171.8125 Z M 214.800781 138.75"/></g><g clip-path="url(#c)"><path fill="#DAA520" d="M 81.300781 138.75 L 81.300781 272.25 L 114.367188 239.183594 L 114.367188 171.8125 Z M 81.300781 138.75"/></g><path fill="#DAA520" d="M 101.972656 232.097656 C 101.972656 232.371094 101.945312 232.640625 101.894531 232.90625 C 101.839844 233.171875 101.761719 233.433594 101.65625 233.683594 C 101.554688 233.933594 101.425781 234.171875 101.277344 234.398438 C 101.125 234.625 100.953125 234.832031 100.761719 235.027344 C 100.570312 235.21875 100.359375 235.390625 100.132812 235.539062 C 99.90625 235.691406 99.667969 235.820312 99.417969 235.921875 C 99.167969 236.027344 98.910156 236.105469 98.640625 236.160156 C 98.375 236.210938 98.105469 236.238281 97.835938 236.238281 C 97.5625 236.238281 97.292969 236.210938 97.027344 236.160156 C 96.761719 236.105469 96.5 236.027344 96.25 235.921875 C 96 235.820312 95.761719 235.691406 95.535156 235.539062 C 95.308594 235.390625 95.101562 235.21875 94.90625 235.027344 C 94.714844 234.832031 94.542969 234.625 94.394531 234.398438 C 94.242188 234.171875 94.113281 233.933594 94.011719 233.683594 C 93.90625 233.433594 93.828125 233.171875 93.773438 232.90625 C 93.722656 232.640625 93.695312 232.371094 93.695312 232.097656 C 93.695312 231.828125 93.722656 231.558594 93.773438 231.292969 C 93.828125 231.027344 93.90625 230.765625 94.011719 230.515625 C 94.113281 230.265625 94.242188 230.027344 94.394531 229.800781 C 94.542969 229.574219 94.714844 229.363281 94.90625 229.171875 C 95.101562 228.980469 95.308594 228.808594 95.535156 228.660156 C 95.761719 228.507812 96 228.378906 96.25 228.277344 C 96.5 228.171875 96.761719 228.09375 97.027344 228.039062 C 97.292969 227.988281 97.5625 227.960938 97.835938 227.960938 C 98.105469 227.960938 98.375 227.988281 98.640625 228.039062 C 98.910156 228.09375 99.167969 228.171875 99.417969 228.277344 C 99.667969 228.378906 99.90625 228.507812 100.132812 228.660156 C 100.359375 228.808594 100.570312 228.980469 100.761719 229.171875 C 100.953125 229.363281 101.125 229.574219 101.277344 229.800781 C 101.425781 230.027344 101.554688 230.265625 101.65625 230.515625 C 101.761719 230.765625 101.839844 231.027344 101.894531 231.292969 C 101.945312 231.558594 101.972656 231.828125 101.972656 232.097656 Z M 101.972656 232.097656"/><g clip-path="url(#d)"><g mask="url(#e)"><g><g clip-path="url(#f)" transform="translate(81 138)"><g clip-path="url(#g)"><path fill="#FFF" d="M 0.300781 0.75 L 33.367188 33.8125 L 100.738281 33.8125 L 133.800781 0.75 Z M 93.839844 21.257812 C 91.554688 21.257812 89.703125 19.40625 89.703125 17.117188 C 89.703125 14.832031 91.554688 12.980469 93.839844 12.980469 C 96.128906 12.980469 97.980469 14.832031 97.980469 17.117188 C 97.980469 19.40625 96.128906 21.257812 93.839844 21.257812 Z M 93.839844 21.257812"/></g></g></g></g></g><g mask="url(#h)"><g><g clip-path="url(#i)" transform="translate(93 227)"><g clip-path="url(#j)"><path fill="#FFF" d="M 8.972656 5.097656 C 8.972656 5.371094 8.945312 5.640625 8.894531 5.90625 C 8.839844 6.171875 8.761719 6.433594 8.65625 6.683594 C 8.554688 6.933594 8.425781 7.171875 8.277344 7.398438 C 8.125 7.625 7.953125 7.832031 7.761719 8.027344 C 7.570312 8.21875 7.359375 8.390625 7.132812 8.539062 C 6.90625 8.691406 6.667969 8.820312 6.417969 8.921875 C 6.167969 9.027344 5.910156 9.105469 5.640625 9.160156 C 5.375 9.210938 5.105469 9.238281 4.835938 9.238281 C 4.5625 9.238281 4.292969 9.210938 4.027344 9.160156 C 3.761719 9.105469 3.5 9.027344 3.25 8.921875 C 3 8.820312 2.761719 8.691406 2.535156 8.539062 C 2.308594 8.390625 2.101562 8.21875 1.90625 8.027344 C 1.714844 7.832031 1.542969 7.625 1.394531 7.398438 C 1.242188 7.171875 1.113281 6.933594 1.011719 6.683594 C 0.90625 6.433594 0.828125 6.171875 0.773438 5.90625 C 0.722656 5.640625 0.695312 5.371094 0.695312 5.097656 C 0.695312 4.828125 0.722656 4.558594 0.773438 4.292969 C 0.828125 4.027344 0.90625 3.765625 1.011719 3.515625 C 1.113281 3.265625 1.242188 3.027344 1.394531 2.800781 C 1.542969 2.574219 1.714844 2.363281 1.90625 2.171875 C 2.101562 1.980469 2.308594 1.808594 2.535156 1.660156 C 2.761719 1.507812 3 1.378906 3.25 1.277344 C 3.5 1.171875 3.761719 1.09375 4.027344 1.039062 C 4.292969 0.988281 4.5625 0.960938 4.835938 0.960938 C 5.105469 0.960938 5.375 0.988281 5.640625 1.039062 C 5.910156 1.09375 6.167969 1.171875 6.417969 1.277344 C 6.667969 1.378906 6.90625 1.507812 7.132812 1.660156 C 7.359375 1.808594 7.570312 1.980469 7.761719 2.171875 C 7.953125 2.363281 8.125 2.574219 8.277344 2.800781 C 8.425781 3.027344 8.554688 3.265625 8.65625 3.515625 C 8.761719 3.765625 8.839844 4.027344 8.894531 4.292969 C 8.945312 4.558594 8.972656 4.828125 8.972656 5.097656 Z M 8.972656 5.097656"/></g></g></g></g><g fill="#DAA520"><g><g><path d="M 21.238281 -4.101562 L 13.980469 -23.785156 L 11.359375 -23.785156 L 4.445312 -3.761719 C 3.835938 -2.015625 2.886719 -1.253906 0.378906 -1.0625 L 0.378906 0 C 3.152344 -0.113281 6.421875 -0.113281 9.234375 0 L 9.234375 -1.0625 C 6.761719 -1.253906 5.28125 -1.746094 5.773438 -3.191406 L 7.296875 -7.714844 L 15.273438 -7.714844 L 16.871094 -3.34375 C 17.441406 -1.824219 17.136719 -1.253906 14.589844 -1.0625 L 14.589844 0 C 18.007812 -0.113281 21.542969 -0.113281 24.960938 0 L 24.960938 -1.0625 C 22.304688 -1.253906 21.960938 -2.164062 21.238281 -4.101562 Z M 7.714844 -8.96875 L 11.09375 -19.148438 L 14.816406 -8.96875 Z M 7.714844 -8.96875" transform="translate(123.145 201)"/></g></g></g><g fill="#DAA520"><g><g><path d="M 17.972656 -6.230469 L 16.640625 -3.722656 C 15.652344 -1.9375 14.515625 -1.253906 11.664062 -1.253906 L 9.574219 -1.253906 C 8.433594 -1.253906 8.207031 -1.632812 8.207031 -2.964844 L 8.207031 -20.632812 C 8.207031 -21.960938 8.929688 -22.378906 10.941406 -22.53125 L 10.941406 -23.59375 C 7.675781 -23.480469 4.21875 -23.480469 0.949219 -23.59375 L 0.949219 -22.53125 C 3 -22.378906 3.722656 -21.960938 3.722656 -20.632812 L 3.722656 -2.964844 C 3.722656 -1.632812 3.078125 -1.214844 1.027344 -1.0625 L 1.027344 0 C 6.726562 -0.113281 11.96875 -0.113281 17.894531 0 C 18.007812 -2.050781 18.3125 -4.027344 19.074219 -6.230469 Z M 17.972656 -6.230469" transform="translate(148.485 201)"/></g></g></g><g fill="#DAA520"><g><g><path d="M 24.429688 -22.53125 L 24.429688 -23.59375 C 21.164062 -23.480469 17.707031 -23.480469 14.4375 -23.59375 L 14.4375 -22.53125 C 16.488281 -22.378906 17.210938 -21.960938 17.210938 -20.632812 L 17.210938 -12.460938 L 8.207031 -12.460938 L 8.207031 -20.632812 C 8.207031 -21.960938 8.929688 -22.378906 10.941406 -22.53125 L 10.941406 -23.59375 C 7.675781 -23.480469 4.21875 -23.480469 0.949219 -23.59375 L 0.949219 -22.53125 C 3 -22.378906 3.722656 -21.960938 3.722656 -20.632812 L 3.722656 -2.964844 C 3.722656 -1.632812 3 -1.214844 0.949219 -1.0625 L 0.949219 0 C 4.21875 -0.113281 7.675781 -0.113281 10.941406 0 L 10.941406 -1.0625 C 8.929688 -1.214844 8.207031 -1.632812 8.207031 -2.964844 L 8.207031 -11.171875 L 17.210938 -11.171875 L 17.210938 -2.964844 C 17.210938 -1.632812 16.488281 -1.214844 14.4375 -1.0625 L 14.4375 0 C 17.707031 -0.113281 21.164062 -0.113281 24.429688 0 L 24.429688 -1.0625 C 22.417969 -1.214844 21.695312 -1.632812 21.695312 -2.964844 L 21.695312 -20.632812 C 21.695312 -21.960938 22.417969 -22.378906 24.429688 -22.53125 Z M 24.429688 -22.53125" transform="translate(176.676 201)"/></g></g></g><g fill="#DAA520"><g><g><path d="M 21.238281 -4.101562 L 13.980469 -23.785156 L 11.359375 -23.785156 L 4.445312 -3.761719 C 3.835938 -2.015625 2.886719 -1.253906 0.378906 -1.0625 L 0.378906 0 C 3.152344 -0.113281 6.421875 -0.113281 9.234375 0 L 9.234375 -1.0625 C 6.761719 -1.253906 5.28125 -1.746094 5.773438 -3.191406 L 7.296875 -7.714844 L 15.273438 -7.714844 L 16.871094 -3.34375 C 17.441406 -1.824219 17.136719 -1.253906 14.589844 -1.0625 L 14.589844 0 C 18.007812 -0.113281 21.542969 -0.113281 24.960938 0 L 24.960938 -1.0625 C 22.304688 -1.253906 21.960938 -2.164062 21.238281 -4.101562 Z M 7.714844 -8.96875 L 11.09375 -19.148438 L 14.816406 -8.96875 Z M 7.714844 -8.96875" transform="translate(202.054 201)"/></g></g></g><g fill="#DAA520"><g><g><path d="M 23.558594 2.164062 C 23.40625 3.265625 22.113281 4.40625 20.023438 4.40625 C 17.363281 4.40625 15.046875 2.46875 11.777344 2.46875 C 10.105469 2.46875 8.699219 2.964844 7.675781 3.457031 C 9.953125 1.597656 14.324219 1.140625 17.742188 -1.027344 C 21.050781 -3.039062 23.0625 -6.992188 23.0625 -11.742188 C 23.0625 -19.035156 18.542969 -24.203125 12.160156 -24.203125 C 5.773438 -24.203125 1.328125 -18.921875 1.328125 -11.929688 C 1.328125 -4.636719 5.851562 0.53125 12.273438 0.53125 C 8.207031 1.445312 4.371094 3.535156 3.417969 5.355469 L 7.21875 5.355469 C 7.597656 4.636719 8.96875 3.570312 10.789062 3.570312 C 14.628906 3.570312 15.539062 7.980469 19.949219 7.980469 C 23.175781 7.980469 25.304688 5.625 25.304688 2.164062 Z M 6.078125 -12.996094 C 6.078125 -20.097656 8.625 -22.835938 11.550781 -22.835938 C 15.578125 -22.835938 18.3125 -17.667969 18.3125 -10.714844 C 18.3125 -3.609375 15.769531 -0.835938 12.765625 -0.835938 C 8.816406 -0.835938 6.078125 -6.042969 6.078125 -12.996094 Z M 6.078125 -12.996094" transform="translate(227.395 201)"/></g></g></g><g clip-path="url(#k)"><path fill="#DAA520" d="M 159.480469 272.039062 L 292.980469 272.039062 L 259.914062 238.976562 L 192.542969 238.976562 Z M 159.480469 272.039062"/></g><g clip-path="url(#l)"><path fill="#DAA520" d="M 292.980469 272.039062 L 292.980469 138.539062 L 259.914062 171.605469 L 259.914062 238.976562 Z M 292.980469 272.039062"/></g><path fill="#DAA520" d="M 272.308594 178.6875 C 272.308594 178.417969 272.335938 178.148438 272.386719 177.882812 C 272.441406 177.617188 272.519531 177.355469 272.625 177.105469 C 272.726562 176.855469 272.855469 176.617188 273.007812 176.390625 C 273.15625 176.164062 273.328125 175.953125 273.519531 175.761719 C 273.714844 175.570312 273.921875 175.398438 274.148438 175.25 C 274.375 175.097656 274.613281 174.96875 274.863281 174.867188 C 275.113281 174.761719 275.375 174.683594 275.640625 174.628906 C 275.90625 174.578125 276.175781 174.550781 276.449219 174.550781 C 276.71875 174.550781 276.988281 174.578125 277.253906 174.628906 C 277.519531 174.683594 277.78125 174.761719 278.03125 174.867188 C 278.28125 174.96875 278.519531 175.097656 278.746094 175.25 C 278.972656 175.398438 279.183594 175.570312 279.375 175.761719 C 279.566406 175.953125 279.738281 176.164062 279.886719 176.390625 C 280.039062 176.617188 280.167969 176.855469 280.269531 177.105469 C 280.375 177.355469 280.453125 177.617188 280.507812 177.882812 C 280.558594 178.148438 280.585938 178.417969 280.585938 178.6875 C 280.585938 178.960938 280.558594 179.230469 280.507812 179.496094 C 280.453125 179.761719 280.375 180.023438 280.269531 180.273438 C 280.167969 180.523438 280.039062 180.761719 279.886719 180.988281 C 279.738281 181.214844 279.566406 181.421875 279.375 181.617188 C 279.183594 181.808594 278.972656 181.980469 278.746094 182.128906 C 278.519531 182.28125 278.28125 182.410156 278.03125 182.511719 C 277.78125 182.617188 277.519531 182.695312 277.253906 182.75 C 276.988281 182.800781 276.71875 182.828125 276.449219 182.828125 C 276.175781 182.828125 275.90625 182.800781 275.640625 182.75 C 275.375 182.695312 275.113281 182.617188 274.863281 182.511719 C 274.613281 182.410156 274.375 182.28125 274.148438 182.128906 C 273.921875 181.980469 273.714844 181.808594 273.519531 181.617188 C 273.328125 181.421875 273.15625 181.214844 273.007812 180.988281 C 272.855469 180.761719 272.726562 180.523438 272.625 180.273438 C 272.519531 180.023438 272.441406 179.761719 272.386719 179.496094 C 272.335938 179.230469 272.308594 178.960938 272.308594 178.6875 Z M 272.308594 178.6875"/><g clip-path="url(#m)"><g mask="url(#n)"><g><g clip-path="url(#o)" transform="translate(159 238)"><g clip-path="url(#p)"><path fill="#FFF" d="M 133.980469 34.039062 L 100.914062 0.976562 L 33.542969 0.976562 L 0.480469 34.039062 Z M 40.441406 13.53125 C 42.726562 13.53125 44.582031 15.382812 44.582031 17.671875 C 44.582031 19.957031 42.726562 21.808594 40.441406 21.808594 C 38.15625 21.808594 36.304688 19.957031 36.304688 17.671875 C 36.304688 15.382812 38.152344 13.53125 40.441406 13.53125 Z M 40.441406 13.53125"/></g></g></g></g></g><g mask="url(#q)"><g><g clip-path="url(#r)" transform="translate(271 174)"><path fill="#FFF" d="M 1.308594 4.6875 C 1.308594 4.417969 1.335938 4.148438 1.386719 3.882812 C 1.441406 3.617188 1.519531 3.355469 1.625 3.105469 C 1.726562 2.855469 1.855469 2.617188 2.007812 2.390625 C 2.15625 2.164062 2.328125 1.953125 2.519531 1.761719 C 2.714844 1.570312 2.921875 1.398438 3.148438 1.25 C 3.375 1.097656 3.613281 0.96875 3.863281 0.867188 C 4.113281 0.761719 4.375 0.683594 4.640625 0.628906 C 4.90625 0.578125 5.175781 0.550781 5.449219 0.550781 C 5.71875 0.550781 5.988281 0.578125 6.253906 0.628906 C 6.519531 0.683594 6.78125 0.761719 7.03125 0.867188 C 7.28125 0.96875 7.519531 1.097656 7.746094 1.25 C 7.972656 1.398438 8.183594 1.570312 8.375 1.761719 C 8.566406 1.953125 8.738281 2.164062 8.886719 2.390625 C 9.039062 2.617188 9.167969 2.855469 9.269531 3.105469 C 9.375 3.355469 9.453125 3.617188 9.507812 3.882812 C 9.558594 4.148438 9.585938 4.417969 9.585938 4.6875 C 9.585938 4.960938 9.558594 5.230469 9.507812 5.496094 C 9.453125 5.761719 9.375 6.023438 9.269531 6.273438 C 9.167969 6.523438 9.039062 6.761719 8.886719 6.988281 C 8.738281 7.214844 8.566406 7.421875 8.375 7.617188 C 8.183594 7.808594 7.972656 7.980469 7.746094 8.128906 C 7.519531 8.28125 7.28125 8.410156 7.03125 8.511719 C 6.78125 8.617188 6.519531 8.695312 6.253906 8.75 C 5.988281 8.800781 5.71875 8.828125 5.449219 8.828125 C 5.175781 8.828125 4.90625 8.800781 4.640625 8.75 C 4.375 8.695312 4.113281 8.617188 3.863281 8.511719 C 3.613281 8.410156 3.375 8.28125 3.148438 8.128906 C 2.921875 7.980469 2.714844 7.808594 2.519531 7.617188 C 2.328125 7.421875 2.15625 7.214844 2.007812 6.988281 C 1.855469 6.761719 1.726562 6.523438 1.625 6.273438 C 1.519531 6.023438 1.441406 5.761719 1.386719 5.496094 C 1.335938 5.230469 1.308594 4.960938 1.308594 4.6875 Z M 1.308594 4.6875"/></g></g></g><g fill="#DAA520"><g><g><path d="M 1.921875 0 L 1.921875 -13.5625 L 2.859375 -13.5625 L 2.859375 0 Z M 1.921875 0" transform="translate(128.818 221.093)"/></g></g></g><g fill="#DAA520"><g><g><path d="M 8.71875 0 L 8.71875 -6.546875 C 8.71875 -7.554688 8.503906 -8.289062 8.078125 -8.75 C 7.648438 -9.207031 6.988281 -9.4375 6.09375 -9.4375 C 4.882812 -9.4375 4 -9.128906 3.4375 -8.515625 C 2.882812 -7.910156 2.609375 -6.925781 2.609375 -5.5625 L 2.609375 0 L 1.6875 0 L 1.6875 -10.078125 L 2.46875 -10.078125 L 2.640625 -8.703125 L 2.703125 -8.703125 C 3.359375 -9.753906 4.523438 -10.28125 6.203125 -10.28125 C 8.484375 -10.28125 9.625 -9.050781 9.625 -6.59375 L 9.625 0 Z M 8.71875 0" transform="translate(133.604 221.093)"/></g></g></g><g fill="#DAA520"><g><g><path d="M 5.4375 -9.28125 L 3.0625 -9.28125 L 3.0625 0 L 2.140625 0 L 2.140625 -9.28125 L 0.265625 -9.28125 L 0.265625 -9.828125 L 2.140625 -10.171875 L 2.140625 -10.953125 C 2.140625 -12.179688 2.363281 -13.082031 2.8125 -13.65625 C 3.269531 -14.238281 4.019531 -14.53125 5.0625 -14.53125 C 5.613281 -14.53125 6.164062 -14.445312 6.71875 -14.28125 L 6.515625 -13.484375 C 6.015625 -13.640625 5.519531 -13.71875 5.03125 -13.71875 C 4.320312 -13.71875 3.816406 -13.503906 3.515625 -13.078125 C 3.210938 -12.660156 3.0625 -11.972656 3.0625 -11.015625 L 3.0625 -10.078125 L 5.4375 -10.078125 Z M 5.4375 -9.28125" transform="translate(144.809 221.093)"/></g></g></g><g fill="#DAA520"><g><g><path d="M 5.65625 -10.28125 C 6.082031 -10.28125 6.539062 -10.238281 7.03125 -10.15625 L 6.859375 -9.265625 C 6.429688 -9.367188 5.992188 -9.421875 5.546875 -9.421875 C 4.691406 -9.421875 3.988281 -9.054688 3.4375 -8.328125 C 2.882812 -7.597656 2.609375 -6.675781 2.609375 -5.5625 L 2.609375 0 L 1.6875 0 L 1.6875 -10.078125 L 2.46875 -10.078125 L 2.5625 -8.265625 L 2.625 -8.265625 C 3.039062 -9.003906 3.484375 -9.523438 3.953125 -9.828125 C 4.421875 -10.128906 4.988281 -10.28125 5.65625 -10.28125 Z M 5.65625 -10.28125" transform="translate(150.504 221.093)"/></g></g></g><g fill="#DAA520"><g><g><path d="M 7.8125 0 L 7.578125 -1.59375 L 7.5 -1.59375 C 7 -0.945312 6.476562 -0.488281 5.9375 -0.21875 C 5.40625 0.0507812 4.773438 0.1875 4.046875 0.1875 C 3.054688 0.1875 2.285156 -0.0664062 1.734375 -0.578125 C 1.179688 -1.085938 0.90625 -1.789062 0.90625 -2.6875 C 0.90625 -3.664062 1.316406 -4.425781 2.140625 -4.96875 C 2.960938 -5.519531 4.148438 -5.804688 5.703125 -5.828125 L 7.609375 -5.890625 L 7.609375 -6.5625 C 7.609375 -7.519531 7.414062 -8.242188 7.03125 -8.734375 C 6.644531 -9.222656 6.019531 -9.46875 5.15625 -9.46875 C 4.21875 -9.46875 3.25 -9.207031 2.25 -8.6875 L 1.90625 -9.484375 C 3.007812 -10.003906 4.101562 -10.265625 5.1875 -10.265625 C 6.289062 -10.265625 7.113281 -9.972656 7.65625 -9.390625 C 8.207031 -8.816406 8.484375 -7.921875 8.484375 -6.703125 L 8.484375 0 Z M 4.09375 -0.65625 C 5.175781 -0.65625 6.023438 -0.960938 6.640625 -1.578125 C 7.265625 -2.191406 7.578125 -3.046875 7.578125 -4.140625 L 7.578125 -5.125 L 5.8125 -5.0625 C 4.394531 -4.988281 3.382812 -4.765625 2.78125 -4.390625 C 2.1875 -4.015625 1.890625 -3.429688 1.890625 -2.640625 C 1.890625 -2.015625 2.082031 -1.523438 2.46875 -1.171875 C 2.851562 -0.828125 3.394531 -0.65625 4.09375 -0.65625 Z M 4.09375 -0.65625" transform="translate(157.897 221.093)"/></g></g></g><g fill="#DAA520"><g><g><path d="M 7.9375 -2.625 C 7.9375 -1.71875 7.59375 -1.019531 6.90625 -0.53125 C 6.21875 -0.0507812 5.242188 0.1875 3.984375 0.1875 C 2.640625 0.1875 1.570312 -0.0195312 0.78125 -0.4375 L 0.78125 -1.421875 C 1.789062 -0.921875 2.859375 -0.671875 3.984375 -0.671875 C 4.984375 -0.671875 5.738281 -0.832031 6.25 -1.15625 C 6.769531 -1.488281 7.03125 -1.929688 7.03125 -2.484375 C 7.03125 -2.992188 6.820312 -3.421875 6.40625 -3.765625 C 6 -4.109375 5.328125 -4.445312 4.390625 -4.78125 C 3.378906 -5.144531 2.671875 -5.457031 2.265625 -5.71875 C 1.859375 -5.988281 1.550781 -6.285156 1.34375 -6.609375 C 1.132812 -6.941406 1.03125 -7.347656 1.03125 -7.828125 C 1.03125 -8.585938 1.347656 -9.1875 1.984375 -9.625 C 2.617188 -10.0625 3.503906 -10.28125 4.640625 -10.28125 C 5.722656 -10.28125 6.753906 -10.078125 7.734375 -9.671875 L 7.390625 -8.828125 C 6.398438 -9.234375 5.484375 -9.4375 4.640625 -9.4375 C 3.816406 -9.4375 3.160156 -9.300781 2.671875 -9.03125 C 2.191406 -8.757812 1.953125 -8.382812 1.953125 -7.90625 C 1.953125 -7.375 2.140625 -6.953125 2.515625 -6.640625 C 2.890625 -6.328125 3.625 -5.972656 4.71875 -5.578125 C 5.625 -5.253906 6.28125 -4.960938 6.6875 -4.703125 C 7.101562 -4.441406 7.414062 -4.140625 7.625 -3.796875 C 7.832031 -3.460938 7.9375 -3.070312 7.9375 -2.625 Z M 7.9375 -2.625" transform="translate(167.96 221.093)"/></g></g></g><g fill="#DAA520"><g><g><path d="M 4.34375 -0.625 C 4.925781 -0.625 5.4375 -0.675781 5.875 -0.78125 L 5.875 -0.03125 C 5.425781 0.113281 4.910156 0.1875 4.328125 0.1875 C 3.441406 0.1875 2.785156 -0.0507812 2.359375 -0.53125 C 1.929688 -1.007812 1.71875 -1.757812 1.71875 -2.78125 L 1.71875 -9.28125 L 0.234375 -9.28125 L 0.234375 -9.828125 L 1.71875 -10.25 L 2.1875 -12.53125 L 2.65625 -12.53125 L 2.65625 -10.078125 L 5.625 -10.078125 L 5.625 -9.28125 L 2.65625 -9.28125 L 2.65625 -2.90625 C 2.65625 -2.132812 2.789062 -1.5625 3.0625 -1.1875 C 3.34375 -0.8125 3.769531 -0.625 4.34375 -0.625 Z M 4.34375 -0.625" transform="translate(176.81 221.093)"/></g></g></g><g fill="#DAA520"><g><g><path d="M 5.65625 -10.28125 C 6.082031 -10.28125 6.539062 -10.238281 7.03125 -10.15625 L 6.859375 -9.265625 C 6.429688 -9.367188 5.992188 -9.421875 5.546875 -9.421875 C 4.691406 -9.421875 3.988281 -9.054688 3.4375 -8.328125 C 2.882812 -7.597656 2.609375 -6.675781 2.609375 -5.5625 L 2.609375 0 L 1.6875 0 L 1.6875 -10.078125 L 2.46875 -10.078125 L 2.5625 -8.265625 L 2.625 -8.265625 C 3.039062 -9.003906 3.484375 -9.523438 3.953125 -9.828125 C 4.421875 -10.128906 4.988281 -10.28125 5.65625 -10.28125 Z M 5.65625 -10.28125" transform="translate(183.172 221.093)"/></g></g></g><g fill="#DAA520"><g><g><path d="M 2.484375 -10.078125 L 2.484375 -3.546875 C 2.484375 -2.535156 2.695312 -1.800781 3.125 -1.34375 C 3.550781 -0.882812 4.210938 -0.65625 5.109375 -0.65625 C 6.304688 -0.65625 7.1875 -0.957031 7.75 -1.5625 C 8.320312 -2.164062 8.609375 -3.148438 8.609375 -4.515625 L 8.609375 -10.078125 L 9.515625 -10.078125 L 9.515625 0 L 8.734375 0 L 8.578125 -1.390625 L 8.515625 -1.390625 C 7.859375 -0.335938 6.691406 0.1875 5.015625 0.1875 C 2.722656 0.1875 1.578125 -1.039062 1.578125 -3.5 L 1.578125 -10.078125 Z M 2.484375 -10.078125" transform="translate(190.565 221.093)"/></g></g></g><g fill="#DAA520"><g><g><path d="M 5.71875 0.1875 C 4.269531 0.1875 3.140625 -0.265625 2.328125 -1.171875 C 1.515625 -2.085938 1.109375 -3.359375 1.109375 -4.984375 C 1.109375 -6.648438 1.53125 -7.945312 2.375 -8.875 C 3.21875 -9.8125 4.378906 -10.28125 5.859375 -10.28125 C 6.722656 -10.28125 7.554688 -10.128906 8.359375 -9.828125 L 8.109375 -9.015625 C 7.234375 -9.296875 6.472656 -9.4375 5.828125 -9.4375 C 4.597656 -9.4375 3.660156 -9.054688 3.015625 -8.296875 C 2.378906 -7.535156 2.0625 -6.4375 2.0625 -5 C 2.0625 -3.632812 2.378906 -2.566406 3.015625 -1.796875 C 3.660156 -1.035156 4.554688 -0.65625 5.703125 -0.65625 C 6.609375 -0.65625 7.457031 -0.816406 8.25 -1.140625 L 8.25 -0.28125 C 7.601562 0.03125 6.757812 0.1875 5.71875 0.1875 Z M 5.71875 0.1875" transform="translate(201.77 221.093)"/></g></g></g><g fill="#DAA520"><g><g><path d="M 4.34375 -0.625 C 4.925781 -0.625 5.4375 -0.675781 5.875 -0.78125 L 5.875 -0.03125 C 5.425781 0.113281 4.910156 0.1875 4.328125 0.1875 C 3.441406 0.1875 2.785156 -0.0507812 2.359375 -0.53125 C 1.929688 -1.007812 1.71875 -1.757812 1.71875 -2.78125 L 1.71875 -9.28125 L 0.234375 -9.28125 L 0.234375 -9.828125 L 1.71875 -10.25 L 2.1875 -12.53125 L 2.65625 -12.53125 L 2.65625 -10.078125 L 5.625 -10.078125 L 5.625 -9.28125 L 2.65625 -9.28125 L 2.65625 -2.90625 C 2.65625 -2.132812 2.789062 -1.5625 3.0625 -1.1875 C 3.34375 -0.8125 3.769531 -0.625 4.34375 -0.625 Z M 4.34375 -0.625" transform="translate(210.794 221.093)"/></g></g></g><g fill="#DAA520"><g><g><path d="M 2.484375 -10.078125 L 2.484375 -3.546875 C 2.484375 -2.535156 2.695312 -1.800781 3.125 -1.34375 C 3.550781 -0.882812 4.210938 -0.65625 5.109375 -0.65625 C 6.304688 -0.65625 7.1875 -0.957031 7.75 -1.5625 C 8.320312 -2.164062 8.609375 -3.148438 8.609375 -4.515625 L 8.609375 -10.078125 L 9.515625 -10.078125 L 9.515625 0 L 8.734375 0 L 8.578125 -1.390625 L 8.515625 -1.390625 C 7.859375 -0.335938 6.691406 0.1875 5.015625 0.1875 C 2.722656 0.1875 1.578125 -1.039062 1.578125 -3.5 L 1.578125 -10.078125 Z M 2.484375 -10.078125" transform="translate(217.157 221.093)"/></g></g></g><g fill="#DAA520"><g><g><path d="M 5.65625 -10.28125 C 6.082031 -10.28125 6.539062 -10.238281 7.03125 -10.15625 L 6.859375 -9.265625 C 6.429688 -9.367188 5.992188 -9.421875 5.546875 -9.421875 C 4.691406 -9.421875 3.988281 -9.054688 3.4375 -8.328125 C 2.882812 -7.597656 2.609375 -6.675781 2.609375 -5.5625 L 2.609375 0 L 1.6875 0 L 1.6875 -10.078125 L 2.46875 -10.078125 L 2.5625 -8.265625 L 2.625 -8.265625 C 3.039062 -9.003906 3.484375 -9.523438 3.953125 -9.828125 C 4.421875 -10.128906 4.988281 -10.28125 5.65625 -10.28125 Z M 5.65625 -10.28125" transform="translate(228.362 221.093)"/></g></g></g><g fill="#DAA520"><g><g><path d="M 5.765625 0.1875 C 4.296875 0.1875 3.148438 -0.265625 2.328125 -1.171875 C 1.515625 -2.078125 1.109375 -3.34375 1.109375 -4.96875 C 1.109375 -6.570312 1.503906 -7.859375 2.296875 -8.828125 C 3.085938 -9.796875 4.15625 -10.28125 5.5 -10.28125 C 6.6875 -10.28125 7.617188 -9.863281 8.296875 -9.03125 C 8.984375 -8.207031 9.328125 -7.082031 9.328125 -5.65625 L 9.328125 -4.921875 L 2.0625 -4.921875 C 2.082031 -3.535156 2.40625 -2.476562 3.03125 -1.75 C 3.664062 -1.019531 4.578125 -0.65625 5.765625 -0.65625 C 6.335938 -0.65625 6.84375 -0.691406 7.28125 -0.765625 C 7.71875 -0.847656 8.269531 -1.023438 8.9375 -1.296875 L 8.9375 -0.453125 C 8.363281 -0.203125 7.835938 -0.0351562 7.359375 0.046875 C 6.878906 0.140625 6.347656 0.1875 5.765625 0.1875 Z M 5.5 -9.46875 C 4.519531 -9.46875 3.734375 -9.144531 3.140625 -8.5 C 2.554688 -7.863281 2.21875 -6.941406 2.125 -5.734375 L 8.359375 -5.734375 C 8.359375 -6.898438 8.101562 -7.8125 7.59375 -8.46875 C 7.09375 -9.132812 6.394531 -9.46875 5.5 -9.46875 Z M 5.5 -9.46875" transform="translate(235.755 221.093)"/></g></g></g></svg>